<?xml version="1.0" encoding="utf-8"?>
<!-- Generator: Adobe Illustrator 27.8.1, SVG Export Plug-In . SVG Version: 6.00 Build 0)  -->
<svg version="1.1" id="Layer_1" xmlns="http://www.w3.org/2000/svg" xmlns:xlink="http://www.w3.org/1999/xlink" x="0px" y="0px"
	 viewBox="0 0 838 236" style="enable-background:new 0 0 838 236;" xml:space="preserve">
<style type="text/css">
	.st0{fill:#FFFFFF;}
</style>
<path class="st0" d="M359,64v21h-43.9v22.7h32.8v20.4h-32.8v43.6h-26.2V64H359z M472.7,86.1v85.6h-26.2V160
	c-12.7,18.3-45.5,16.4-54.9-4.4c-7.4-11.9-3-55.7-4.1-69.5h26.1v46.5c-0.1,10.7,5.8,18.1,16.4,18.1c10.7,0,16.7-7.3,16.6-18.1V86.1
	L472.7,86.1L472.7,86.1z M544.6,89.2c4.6-2.7,9.7-4.1,15.3-4.1v27.8c-14.4-0.9-27.8,1.4-26.8,19c0,0,0,39.7,0,39.7h-26.2V86.1h26.2
	v14.3C536.2,95.7,540,91.9,544.6,89.2z M675.3,86.1l-53.7,126.3h-28.2l19.6-43.6l-34.8-82.7h29.3l19.8,53.5L647,86.1H675.3z
	 M700,105.6c9.7-22.9,45.5-28.8,59.1-7.4V86.1h26.2v85.6h-26.2v-12.1c-9.1,14.6-31.5,17.2-45.6,7.9
	C694.2,155.6,690.4,124.9,700,105.6z M753.7,113.4c-20.8-19.2-43,12.7-26.5,30.9C747.5,163.9,770.3,131.1,753.7,113.4z"/>
<path class="st0" d="M100.7,234.2l-0.9,1.6h101.8l-0.9-1.6l46-64.2h2.1l-98-169.8L52.6,170h2.1L100.7,234.2z M58.8,170h78.9
	l-35.2,61L58.8,170z M105.6,232.4l36-62.4h18l36,62.4H105.6z M116.7,100.2c0-18.2,14.8-33,33-33s33,14.8,33,33
	c0,1.5-0.1,2.9-0.3,4.4c-3.3-2.5-7-4.9-11.1-7c-1.3-10.8-10.5-19.1-21.6-19.1c-11.1,0-20.3,8.4-21.6,19.1c-4.1,2-7.8,4.5-11.1,7
	C116.8,103.1,116.7,101.7,116.7,100.2z M168.1,100.2c0,10.1-8.2,18.4-18.4,18.4s-18.4-8.2-18.4-18.4c0-0.1,0-0.2,0-0.4
	c5.7-2.7,11.9-4.4,18.4-4.4c6.5,0,12.7,1.8,18.4,4.4C168,99.9,168.1,100.1,168.1,100.2z M149.7,92c-6.3,0-12.3,1.5-17.8,3.8
	c2-8,9.2-14,17.8-14s15.9,6,17.8,14C162,93.5,156,92,149.7,92z M128,101.5c0.7,11.4,10.1,20.4,21.7,20.4c11.6,0,21-9.1,21.7-20.4
	c3.8,2.1,7.2,4.4,10.3,6.9c-3.6,14.2-16.6,24.8-32,24.8c-15.4,0-28.3-10.6-32-24.8C120.8,105.9,124.2,103.5,128,101.5z M149.7,136.5
	c16.4,0,30.3-10.9,34.8-25.8c5.3,4.6,9.2,8.9,10.7,10.8c-4.1,5-23.2,26.1-45.5,26.1c-22.4,0-41.4-21.2-45.5-26.1
	c1.6-1.9,5.4-6.2,10.7-10.8C119.4,125.6,133.3,136.5,149.7,136.5z M150.7,154.4l7.1,12.2h-14.1L150.7,154.4z M198.8,231l-35.2-61
	h78.9L198.8,231z M150.7,6.9l92.2,159.7h-81.2l-9.1-15.8c25.5-1.8,45.4-27.2,46.2-28.3l0.8-1l-0.8-1c-0.4-0.5-5.4-6.9-13.3-13.5
	c0.4-2.2,0.6-4.5,0.6-6.8c0-20-16.3-36.3-36.3-36.3s-36.3,16.3-36.3,36.3c0,2.3,0.2,4.6,0.6,6.8c-8,6.6-12.9,12.9-13.3,13.5l-0.8,1
	l0.8,1c0.9,1.1,21.7,27.8,48.2,28.4l-9.1,15.7H58.5L150.7,6.9z"/>
</svg>
